<svg xmlns="http://www.w3.org/2000/svg" width="159" height="126"><clipPath id="a"><path d="M156.82 88.05l-4.74 2.27c-1.49.72-2.89 2.64-3.12 4.27l-1.2 4.81c-.56 1.55-.25 3.94.68 5.3l3.46 5.06c.94 1.36.74 3.43-.42 4.59l-5.14 5.14c-1.17 1.17-3.24 1.36-4.6.43l-5.1-3.5c-1.37-.93-3.75-1.23-5.31-.68l-4.17 1.07c-1.63.24-3.55 1.66-4.26 3.15l-1.86 3.86c-.71 1.49-2.6 2.36-4.19 1.93l-7.02-1.88c-1.6-.42-2.8-2.12-2.67-3.76l.34-4.42c.12-1.64-.86-3.79-2.18-4.78 0 0-.31-.23-1.54-1.46-1.31-1.32-1.67-1.81-1.67-1.81-.98-1.33-3.12-2.31-4.77-2.19l-4.49.35c-1.64.12-3.34-1.08-3.76-2.67l-1.89-7.02c-.42-1.59.45-3.48 1.93-4.2l4.17-1.99c1.48-.72 2.91-2.63 3.16-4.26l.76-3.04c.52-1.56.19-3.95-.74-5.31l-2.84-4.15c-.93-1.36-.74-3.43.43-4.6l5.14-5.13c1.17-1.17 3.23-1.36 4.6-.43l3.51 2.4c1.36.94 3.72 1.17 5.24.52l3.94-1.27c1.62-.34 3.52-1.84 4.23-3.33l2.16-4.51c.72-1.49 2.61-2.35 4.2-1.93l7.02 1.88c1.59.43 2.79 2.13 2.67 3.77l-.31 4.04c-.13 1.64.89 3.75 2.25 4.68 0 0 1.2.81 2.82 2.43l1 1c.94 1.19 3.06 2.06 4.7 1.94l5.86-.45c1.64-.13 3.34 1.07 3.76 2.67l1.88 7.02c.43 1.59-.44 3.48-1.92 4.19zm-28.24-3.4c-3.28-3.28-8.58-3.28-11.85-.01-3.27 3.26-3.26 8.57.02 11.84a8.362 8.362 0 0 0 11.84.01c3.27-3.26 3.26-8.57-.01-11.84zM95.2 56.69l-6.42 1.2c-1.62.31-3.37 1.84-3.89 3.4l-1.86 4.54c-.74 1.47-.58 3.8.35 5.16l3.68 5.38c.93 1.36.74 3.43-.43 4.6l-5.65 5.65c-1.17 1.17-3.24 1.36-4.6.43l-5.32-3.64c-1.36-.93-3.67-1.08-5.14-.33l-4.65 1.94c-1.56.52-3.09 2.28-3.4 3.9l-1.17 6.27c-.3 1.62-1.9 2.95-3.55 2.95h-8c-1.65 0-3.25-1.33-3.56-2.95l-1.16-6.23c-.31-1.62-1.84-3.37-3.4-3.89l-4.72-1.94c-1.47-.75-3.79-.59-5.16.34l-5.23 3.58c-1.36.93-3.43.74-4.6-.43l-5.66-5.65c-1.16-1.17-1.36-3.24-.42-4.6l3.59-5.25c.93-1.36 1.08-3.68.34-5.15l-1.94-4.71c-.52-1.56-2.27-3.09-3.89-3.4L3.1 56.69c-1.63-.3-2.95-1.9-2.95-3.55v-8c0-1.65 1.32-3.25 2.95-3.56l6.24-1.17c1.62-.3 3.37-1.83 3.89-3.4l1.94-4.7c.74-1.47.59-3.79-.34-5.15l-3.6-5.25c-.93-1.37-.74-3.44.43-4.6l5.66-5.66c1.17-1.17 3.23-1.36 4.6-.43l5.23 3.59c1.37.93 3.68 1.08 5.16.34l4.72-1.95c1.56-.51 3.09-2.27 3.4-3.89l1.16-6.22C41.9 1.46 43.5.14 45.15.14h8c1.65 0 3.25 1.32 3.55 2.95l1.17 6.26c.31 1.62 1.84 3.38 3.4 3.91l4.65 1.93c1.47.75 3.78.6 5.14-.33l5.32-3.64c1.36-.93 3.43-.74 4.6.43l5.65 5.66c1.17 1.16 1.36 3.23.43 4.6l-3.68 5.38c-.93 1.36-1.09 3.68-.35 5.16l1.86 4.53c.52 1.57 2.27 3.1 3.89 3.4l6.42 1.2c1.62.31 2.95 1.91 2.95 3.56v8c0 1.65-1.33 3.25-2.95 3.55zM49.06 36.17c-7.14 0-12.94 5.8-12.94 12.97 0 7.16 5.8 12.97 12.94 12.97C56.21 62.11 62 56.3 62 49.14c0-7.17-5.79-12.97-12.94-12.97z"/></clipPath><path d="M156.82 88.05l-4.74 2.27c-1.49.72-2.89 2.64-3.12 4.27l-1.2 4.81c-.56 1.55-.25 3.94.68 5.3l3.46 5.06c.94 1.36.74 3.43-.42 4.59l-5.14 5.14c-1.17 1.17-3.24 1.36-4.6.43l-5.1-3.5c-1.37-.93-3.75-1.23-5.31-.68l-4.17 1.07c-1.63.24-3.55 1.66-4.26 3.15l-1.86 3.86c-.71 1.49-2.6 2.36-4.19 1.93l-7.02-1.88c-1.6-.42-2.8-2.12-2.67-3.76l.34-4.42c.12-1.64-.86-3.79-2.18-4.78 0 0-.31-.23-1.54-1.46-1.31-1.32-1.67-1.81-1.67-1.81-.98-1.33-3.12-2.31-4.77-2.19l-4.49.35c-1.64.12-3.34-1.08-3.76-2.67l-1.89-7.02c-.42-1.59.45-3.48 1.93-4.2l4.17-1.99c1.48-.72 2.91-2.63 3.16-4.26l.76-3.04c.52-1.56.19-3.95-.74-5.31l-2.84-4.15c-.93-1.36-.74-3.43.43-4.6l5.14-5.13c1.17-1.17 3.23-1.36 4.6-.43l3.51 2.4c1.36.94 3.72 1.17 5.24.52l3.94-1.27c1.62-.34 3.52-1.84 4.23-3.33l2.16-4.51c.72-1.49 2.61-2.35 4.2-1.93l7.02 1.88c1.59.43 2.79 2.13 2.67 3.77l-.31 4.04c-.13 1.64.89 3.75 2.25 4.68 0 0 1.2.81 2.82 2.43l1 1c.94 1.19 3.06 2.06 4.7 1.94l5.86-.45c1.64-.13 3.34 1.07 3.76 2.67l1.88 7.02c.43 1.59-.44 3.48-1.92 4.19zm-28.24-3.4c-3.28-3.28-8.58-3.28-11.85-.01-3.27 3.26-3.26 8.57.02 11.84a8.362 8.362 0 0 0 11.84.01c3.27-3.26 3.26-8.57-.01-11.84zM95.2 56.69l-6.42 1.2c-1.62.31-3.37 1.84-3.89 3.4l-1.86 4.54c-.74 1.47-.58 3.8.35 5.16l3.68 5.38c.93 1.36.74 3.43-.43 4.6l-5.65 5.65c-1.17 1.17-3.24 1.36-4.6.43l-5.32-3.64c-1.36-.93-3.67-1.08-5.14-.33l-4.65 1.94c-1.56.52-3.09 2.28-3.4 3.9l-1.17 6.27c-.3 1.62-1.9 2.95-3.55 2.95h-8c-1.65 0-3.25-1.33-3.56-2.95l-1.16-6.23c-.31-1.62-1.84-3.37-3.4-3.89l-4.72-1.94c-1.47-.75-3.79-.59-5.16.34l-5.23 3.58c-1.36.93-3.43.74-4.6-.43l-5.66-5.65c-1.16-1.17-1.36-3.24-.42-4.6l3.59-5.25c.93-1.36 1.08-3.68.34-5.15l-1.94-4.71c-.52-1.56-2.27-3.09-3.89-3.4L3.1 56.69c-1.63-.3-2.95-1.9-2.95-3.55v-8c0-1.65 1.32-3.25 2.95-3.56l6.24-1.17c1.62-.3 3.37-1.83 3.89-3.4l1.94-4.7c.74-1.47.59-3.79-.34-5.15l-3.6-5.25c-.93-1.37-.74-3.44.43-4.6l5.66-5.66c1.17-1.17 3.23-1.36 4.6-.43l5.23 3.59c1.37.93 3.68 1.08 5.16.34l4.72-1.95c1.56-.51 3.09-2.27 3.4-3.89l1.16-6.22C41.9 1.46 43.5.14 45.15.14h8c1.65 0 3.25 1.32 3.55 2.95l1.17 6.26c.31 1.62 1.84 3.38 3.4 3.91l4.65 1.93c1.47.75 3.78.6 5.14-.33l5.32-3.64c1.36-.93 3.43-.74 4.6.43l5.65 5.66c1.17 1.16 1.36 3.23.43 4.6l-3.68 5.38c-.93 1.36-1.09 3.68-.35 5.16l1.86 4.53c.52 1.57 2.27 3.1 3.89 3.4l6.42 1.2c1.62.31 2.95 1.91 2.95 3.56v8c0 1.65-1.33 3.25-2.95 3.55zM49.06 36.17c-7.14 0-12.94 5.8-12.94 12.97 0 7.16 5.8 12.97 12.94 12.97C56.21 62.11 62 56.3 62 49.14c0-7.17-5.79-12.97-12.94-12.97z" fill="#477EBB"/><path d="M156.82 88.05l-4.74 2.27c-1.49.72-2.89 2.64-3.12 4.27l-1.2 4.81c-.56 1.55-.25 3.94.68 5.3l3.46 5.06c.94 1.36.74 3.43-.42 4.59l-5.14 5.14c-1.17 1.17-3.24 1.36-4.6.43l-5.1-3.5c-1.37-.93-3.75-1.23-5.31-.68l-4.17 1.07c-1.63.24-3.55 1.66-4.26 3.15l-1.86 3.86c-.71 1.49-2.6 2.36-4.19 1.93l-7.02-1.88c-1.6-.42-2.8-2.12-2.67-3.76l.34-4.42c.12-1.64-.86-3.79-2.18-4.78 0 0-.31-.23-1.54-1.46-1.31-1.32-1.67-1.81-1.67-1.81-.98-1.33-3.12-2.31-4.77-2.19l-4.49.35c-1.64.12-3.34-1.08-3.76-2.67l-1.89-7.02c-.42-1.59.45-3.48 1.93-4.2l4.17-1.99c1.48-.72 2.91-2.63 3.16-4.26l.76-3.04c.52-1.56.19-3.95-.74-5.31l-2.84-4.15c-.93-1.36-.74-3.43.43-4.6l5.14-5.13c1.17-1.17 3.23-1.36 4.6-.43l3.51 2.4c1.36.94 3.72 1.17 5.24.52l3.94-1.27c1.62-.34 3.52-1.84 4.23-3.33l2.16-4.51c.72-1.49 2.61-2.35 4.2-1.93l7.02 1.88c1.59.43 2.79 2.13 2.67 3.77l-.31 4.04c-.13 1.64.89 3.75 2.25 4.68 0 0 1.2.81 2.82 2.43l1 1c.94 1.19 3.06 2.06 4.7 1.94l5.86-.45c1.64-.13 3.34 1.07 3.76 2.67l1.88 7.02c.43 1.59-.44 3.48-1.92 4.19zm-28.24-3.4c-3.28-3.28-8.58-3.28-11.85-.01-3.27 3.26-3.26 8.57.02 11.84a8.362 8.362 0 0 0 11.84.01c3.27-3.26 3.26-8.57-.01-11.84zM95.2 56.69l-6.42 1.2c-1.62.31-3.37 1.84-3.89 3.4l-1.86 4.54c-.74 1.47-.58 3.8.35 5.16l3.68 5.38c.93 1.36.74 3.43-.43 4.6l-5.65 5.65c-1.17 1.17-3.24 1.36-4.6.43l-5.32-3.64c-1.36-.93-3.67-1.08-5.14-.33l-4.65 1.94c-1.56.52-3.09 2.28-3.4 3.9l-1.17 6.27c-.3 1.62-1.9 2.95-3.55 2.95h-8c-1.65 0-3.25-1.33-3.56-2.95l-1.16-6.23c-.31-1.62-1.84-3.37-3.4-3.89l-4.72-1.94c-1.47-.75-3.79-.59-5.16.34l-5.23 3.58c-1.36.93-3.43.74-4.6-.43l-5.66-5.65c-1.16-1.17-1.36-3.24-.42-4.6l3.59-5.25c.93-1.36 1.08-3.68.34-5.15l-1.94-4.71c-.52-1.56-2.27-3.09-3.89-3.4L3.1 56.69c-1.63-.3-2.95-1.9-2.95-3.55v-8c0-1.65 1.32-3.25 2.95-3.56l6.24-1.17c1.62-.3 3.37-1.83 3.89-3.4l1.94-4.7c.74-1.47.59-3.79-.34-5.15l-3.6-5.25c-.93-1.37-.74-3.44.43-4.6l5.66-5.66c1.17-1.17 3.23-1.36 4.6-.43l5.23 3.59c1.37.93 3.68 1.08 5.16.34l4.72-1.95c1.56-.51 3.09-2.27 3.4-3.89l1.16-6.22C41.9 1.46 43.5.14 45.15.14h8c1.65 0 3.25 1.32 3.55 2.95l1.17 6.26c.31 1.62 1.84 3.38 3.4 3.91l4.65 1.93c1.47.75 3.78.6 5.14-.33l5.32-3.64c1.36-.93 3.43-.74 4.6.43l5.65 5.66c1.17 1.16 1.36 3.23.43 4.6l-3.68 5.38c-.93 1.36-1.09 3.68-.35 5.16l1.86 4.53c.52 1.57 2.27 3.1 3.89 3.4l6.42 1.2c1.62.31 2.95 1.91 2.95 3.56v8c0 1.65-1.33 3.25-2.95 3.55zM49.06 36.17c-7.14 0-12.94 5.8-12.94 12.97 0 7.16 5.8 12.97 12.94 12.97C56.21 62.11 62 56.3 62 49.14c0-7.17-5.79-12.97-12.94-12.97z" fill="#477EBB"/><g clip-path="url(#a)"><path d="M131.62 99.52c-4.93 4.93-12.94 4.92-17.89-.02-4.95-4.95-4.96-12.96-.02-17.9 4.93-4.94 12.95-4.93 17.89.02 4.95 4.95 4.96 12.96.02 17.9zm-82.56-31.9c-10.18 0-18.43-8.27-18.43-18.48 0-10.2 8.25-18.48 18.43-18.48 10.19 0 18.44 8.28 18.44 18.48 0 10.21-8.25 18.48-18.44 18.48z" fill="#D9E9F1"/><path d="M98 119c-25-23-3-54-3-54l55 53s-25.96 24.96-52 1zM13 84c-34-37 1-70 1-70l70 70s-37 37-71 0z" fill="#002249" opacity=".2"/></g></svg>