<svg xmlns="http://www.w3.org/2000/svg" width="90" height="131"><clipPath id="a"><path d="M.81 90.46l3.95 40.16 36.75-16.66S33.69 87.51.81 90.46z"/></clipPath><clipPath id="b"><path d="M77.66 3.42c11.24 6.49 15.09 20.86 8.6 32.1l-5.5 9.53c-6.49 11.24-20.86 15.09-32.1 8.6-11.24-6.49-15.09-20.86-8.6-32.1l5.5-9.53C52.05.78 66.42-3.07 77.66 3.42z"/></clipPath><clipPath id="c"><path d="M45.31 12.46s11.17 4.14 21.34 10.01c10.18 5.88 19.36 13.48 19.36 13.48l-12.5 21.66-40.7-23.5 12.5-21.65z"/></clipPath><clipPath id="d"><path d="M34.85 30.33s11.17 4.14 21.35 10.01c10.17 5.88 19.35 13.49 19.35 13.49l-34.04 60.13s-2.96-4.02-8.53-7.23c-6.56-3.79-14.71.74-14.71.74s.1-9.18-7.06-13.32C5.76 91.01.81 90.46.81 90.46l34.04-60.13z"/></clipPath><path d="M.81 90.46l3.95 40.16 36.75-16.66S33.69 87.51.81 90.46z" fill="#FFEBB9"/><path d="M.81 90.46l3.95 40.16 36.75-16.66S33.69 87.51.81 90.46z" fill="#FFEBB9"/><path d="M2.66 119.24s5.79.65 13.14 7.59c7.35 6.93-9.54 7.19-9.54 7.19s-8.73-3.88-8.83-4.71c-.1-.83 2.09-9.96 2.09-9.96" fill="#393939" clip-path="url(#a)"/><path d="M77.66 3.42c11.24 6.49 15.09 20.86 8.6 32.1l-5.5 9.53c-6.49 11.24-20.86 15.09-32.1 8.6-11.24-6.49-15.09-20.86-8.6-32.1l5.5-9.53C52.05.78 66.42-3.07 77.66 3.42z" fill="#E78E8D"/><path d="M77.66 3.42c11.24 6.49 15.09 20.86 8.6 32.1l-5.5 9.53c-6.49 11.24-20.86 15.09-32.1 8.6-11.24-6.49-15.09-20.86-8.6-32.1l5.5-9.53C52.05.78 66.42-3.07 77.66 3.42z" fill="#E78E8D"/><path d="M78.59 2.8l20.79 12-13.5 23.39-20.79-12L78.59 2.8z" fill="#D97375" clip-path="url(#b)"/><path d="M45.31 12.46s11.17 4.14 21.34 10.01c10.18 5.88 19.36 13.48 19.36 13.48l-12.5 21.66-40.7-23.5 12.5-21.65z" fill="#D9E9F1"/><path d="M45.31 12.46s11.17 4.14 21.34 10.01c10.18 5.88 19.36 13.48 19.36 13.48l-12.5 21.66-40.7-23.5 12.5-21.65z" fill="#D9E9F1"/><path d="M68.09 20.99l21.65 12.5-13 22.52-21.65-12.5 13-22.52z" fill="#BDD9E7" clip-path="url(#c)"/><path d="M34.85 30.33s11.17 4.14 21.35 10.01c10.17 5.88 19.35 13.49 19.35 13.49l-34.04 60.13s-2.96-4.02-8.53-7.23c-6.56-3.79-14.71.74-14.71.74s.1-9.18-7.06-13.32C5.76 91.01.81 90.46.81 90.46l34.04-60.13z" fill="#F1C30F"/><path d="M34.85 30.33s11.17 4.14 21.35 10.01c10.17 5.88 19.35 13.49 19.35 13.49l-34.04 60.13s-2.96-4.02-8.53-7.23c-6.56-3.79-14.71.74-14.71.74s.1-9.18-7.06-13.32C5.76 91.01.81 90.46.81 90.46l34.04-60.13z" fill="#F1C30F"/><path d="M62.59 31.44l23.38 13.51-44 76.21-23.38-13.5 44-76.22z" fill="#F39B11" clip-path="url(#d)"/></svg>