<svg xmlns="http://www.w3.org/2000/svg" width="95" height="134"><clipPath id="a"><path d="M91.5 4.57c-.6-1.82-1.01-3.44-.92-3.6.1-.17.14-.3.08-.29-.05 0-.49-.04-.55-.19-.05-.14-.18-.12-.28.05-.1.18-1.71.67-3.57 1.09 0 0-35.11 7.96-50.81 36.71C17.98 70.33 19.3 92.12 19.3 92.12c-.04 1.91 1.28 4.25 2.94 5.21l5.78 3.33c1.65.96 3.17 1.84 3.38 1.96.2.11 1.72.99 3.38 1.95l6.14 3.54c1.65.96 4.36.96 6.01.01 0 0 18.56-10.36 37.53-41.48C101.54 38.61 91.5 4.57 91.5 4.57z"/></clipPath><path d="M48.1 108s1.61 1.22 1.69 3.57c.09 2.36-.55 17.58-.55 17.58s14.43-17 18.6-22.28c3.44-4.36 4.05-12.56-2.13-17.86C59.53 83.71 48.1 108 48.1 108z" fill="#396DA5"/><path d="M18.96 91.17s-1.86-.78-3.94.32C12.94 92.6.08 100.77.08 100.77s7.5-21 9.99-27.26c2.05-5.16 8.85-9.78 16.53-7.08 7.68 2.7-7.64 24.74-7.64 24.74z" fill="#477FBB"/><path d="M26.08 96.15l13.86 8c1.67.96 2.24 3.11 1.28 4.78-.97 1.67-3.11 2.25-4.78 1.28l-13.86-8c-1.67-.97-2.25-3.11-1.28-4.78a3.498 3.498 0 0 1 4.78-1.28z" fill="#D97375"/><path d="M29.81 108.69a8.004 8.004 0 0 1 2.92 10.93c-2.2 3.83-17.07 13.52-17.07 13.52s1.01-17.69 3.22-21.52a7.998 7.998 0 0 1 10.93-2.93z" fill="#F1C30F"/><path d="M91.5 4.57c-.6-1.82-1.01-3.44-.92-3.6.1-.17.14-.3.08-.29-.05 0-.49-.04-.55-.19-.05-.14-.18-.12-.28.05-.1.18-1.71.67-3.57 1.09 0 0-35.11 7.96-50.81 36.71C17.98 70.33 19.3 92.12 19.3 92.12c-.04 1.91 1.28 4.25 2.94 5.21l5.78 3.33c1.65.96 3.17 1.84 3.38 1.96.2.11 1.72.99 3.38 1.95l6.14 3.54c1.65.96 4.36.96 6.01.01 0 0 18.56-10.36 37.53-41.48C101.54 38.61 91.5 4.57 91.5 4.57z" fill="#D9E9F1"/><path d="M91.5 4.57c-.6-1.82-1.01-3.44-.92-3.6.1-.17.14-.3.08-.29-.05 0-.49-.04-.55-.19-.05-.14-.18-.12-.28.05-.1.18-1.71.67-3.57 1.09 0 0-35.11 7.96-50.81 36.71C17.98 70.33 19.3 92.12 19.3 92.12c-.04 1.91 1.28 4.25 2.94 5.21l5.78 3.33c1.65.96 3.17 1.84 3.38 1.96.2.11 1.72.99 3.38 1.95l6.14 3.54c1.65.96 4.36.96 6.01.01 0 0 18.56-10.36 37.53-41.48C101.54 38.61 91.5 4.57 91.5 4.57z" fill="#D9E9F1"/><g clip-path="url(#a)"><path d="M91.44-.06l25.12 14.5-61 105.65-25.12-14.5 61-105.65z" fill="#BEDAE7"/><path d="M92.95-2.68l15.6 8.98-13 22.52s-6.8-6.05-14.61-10.68L92.95-2.68z" fill="#D74747"/><path d="M80.94 18.14c-.24-.14-.47-.28-.7-.42-7.92-4.57-16.73-7.4-16.73-7.4l12.98-22.48 16.46 9.48-12.01 20.82z" fill="#F57B71"/></g><path d="M70.99 34.36c7.87 4.55 10.57 14.62 6.03 22.49-4.55 7.88-14.62 10.58-22.5 6.03-7.87-4.55-10.57-14.62-6.02-22.49 4.54-7.88 14.61-10.58 22.49-6.03z" fill="#FFF"/><path d="M69.01 37.79c5.98 3.46 8.02 11.1 4.57 17.08-3.45 5.98-11.09 8.03-17.07 4.58-5.98-3.46-8.03-11.1-4.58-17.08 3.45-5.98 11.1-8.03 17.08-4.58z" fill="#5AD1EA"/></svg>